<?xml version="1.0" encoding="UTF-8" standalone="no"?>
<!DOCTYPE svg PUBLIC "-//W3C//DTD SVG 1.1//EN" "http://www.w3.org/Graphics/SVG/1.1/DTD/svg11.dtd">
<svg version="1.1" xmlns="http://www.w3.org/2000/svg" xmlns:xlink="http://www.w3.org/1999/xlink" preserveAspectRatio="xMidYMid meet" viewBox="0 0 640 640" width="640" height="640"><defs><path d="M232.32 179.84C240 176 245.12 181.76 249.6 183.04C248.96 185.6 248.96 188.8 248.32 191.36C246.4 227.84 273.92 258.56 310.4 260.48C346.88 262.4 377.6 234.88 379.52 198.4C381.44 161.92 353.92 131.2 317.44 129.28C293.12 128 272 139.52 259.2 158.08C256 151.68 249.6 141.44 239.36 138.24C220.8 132.48 199.68 140.8 188.8 155.52C177.92 170.24 177.28 199.04 146.56 205.44C132.48 209.92 179.2 224 202.24 213.76C227.84 202.24 221.44 186.24 232.32 179.84Z" id="bpWL5eTln"></path><path d="M426.24 403.2C419.11 403.2 383.49 403.2 319.36 403.2L276.48 285.44C276.48 285.44 276.48 285.44 276.48 285.44C270.08 264.96 250.88 249.6 227.84 249.6C219.52 249.6 211.84 251.52 204.8 255.36C204.8 255.36 204.8 255.36 204.8 255.36C112 302.08 58.24 387.84 37.76 513.92C49.92 513.92 147.2 513.92 159.36 513.92C162.56 460.8 172.16 398.72 215.68 361.6C219.01 366.59 235.65 391.55 265.6 436.48C265.6 436.48 265.6 436.48 265.6 436.48C271.36 447.36 282.88 455.68 295.68 455.68C308.67 455.68 412.61 455.68 425.6 455.68C445.44 455.68 459.52 450.56 459.52 431.36C459.52 412.16 444.8 403.2 426.24 403.2Z" id="c1l8jpEB2d"></path><path d="M432 515.2C419.84 515.2 409.6 504.96 409.6 492.8C409.6 480.64 419.84 470.4 432 470.4C438.27 470.4 469.63 470.4 526.08 470.4C551.04 399.36 564.91 359.89 567.68 352C571.52 340.48 584.32 334.08 596.48 338.56C608 342.4 614.4 355.2 609.92 367.36C605.25 380.67 567.87 487.17 563.2 500.48C560 509.44 551.68 515.2 542.08 515.2C520.06 515.2 443.01 515.2 432 515.2Z" id="dwoInbY1N"></path></defs><g><g><g><use xlink:href="#bpWL5eTln" opacity="1" fill="#fff01d" fill-opacity="1"></use><g><use xlink:href="#bpWL5eTln" opacity="1" fill-opacity="0" stroke="#000000" stroke-width="1" stroke-opacity="0"></use></g></g><g><use xlink:href="#c1l8jpEB2d" opacity="1" fill="#fff01d" fill-opacity="1"></use><g><use xlink:href="#c1l8jpEB2d" opacity="1" fill-opacity="0" stroke="#000000" stroke-width="1" stroke-opacity="0"></use></g></g><g><use xlink:href="#dwoInbY1N" opacity="1" fill="#fff01d" fill-opacity="1"></use><g><use xlink:href="#dwoInbY1N" opacity="1" fill-opacity="0" stroke="#000000" stroke-width="1" stroke-opacity="0"></use></g></g></g></g></svg>